HIERARCHY
ROOT root
{
	OFFSET 0.000000 0.000000 0.000000
	CHANNELS 6 Xposition Yposition Zposition Zrotation Yrotation Xrotation
	JOINT lhip
	{
		OFFSET 0.058581 -0.082280 -0.017664
		CHANNELS 3 Zrotation Yrotation Xrotation
		JOINT lknee
		{
			OFFSET 0.043451 -0.386469 0.008037
			CHANNELS 3 Zrotation Yrotation Xrotation
			JOINT lankle
			{
				OFFSET -0.014790 -0.426874 -0.037428
				CHANNELS 3 Zrotation Yrotation Xrotation
				JOINT ltoe
				{
					OFFSET 0.041054 -0.060286 0.122042
					CHANNELS 3 Zrotation Yrotation Xrotation
					End Site
					{
						OFFSET 0.000000 0.000000 0.000000
					}
				}
			}
		}
	}
	JOINT rhip
	{
		OFFSET -0.060310 -0.090513 -0.013543
		CHANNELS 3 Zrotation Yrotation Xrotation
		JOINT rknee
		{
			OFFSET -0.043257 -0.383688 -0.004843
			CHANNELS 3 Zrotation Yrotation Xrotation
			JOINT rankle
			{
				OFFSET 0.019056 -0.420046 -0.034562
				CHANNELS 3 Zrotation Yrotation Xrotation
				JOINT rtoe
				{
					OFFSET -0.034840 -0.062106 0.130323
					CHANNELS 3 Zrotation Yrotation Xrotation
					End Site
					{
						OFFSET 0.000000 0.000000 0.000000
					}
				}
			}
		}
	}
	JOINT lowerback
	{
		OFFSET 0.004439 0.124404 -0.038385
		CHANNELS 3 Zrotation Yrotation Xrotation
		JOINT upperback
		{
			OFFSET 0.004488 0.137956 0.026820
			CHANNELS 3 Zrotation Yrotation Xrotation
			JOINT chest
			{
				OFFSET -0.002265 0.056032 0.002855
				CHANNELS 3 Zrotation Yrotation Xrotation
				JOINT lowerneck
				{
					OFFSET -0.013390 0.211636 -0.033468
					CHANNELS 3 Zrotation Yrotation Xrotation
					JOINT upperneck
					{
						OFFSET 0.010113 0.088937 0.050410
						CHANNELS 3 Zrotation Yrotation Xrotation
						End Site
						{
							OFFSET 0.000000 0.000000 0.000000
						}
					}
				}
				JOINT lclavicle
				{
					OFFSET 0.071702 0.114000 -0.018898
					CHANNELS 3 Zrotation Yrotation Xrotation
					JOINT lshoulder
					{
						OFFSET 0.122921 0.045205 -0.019046
						CHANNELS 3 Zrotation Yrotation Xrotation
						JOINT lelbow
						{
							OFFSET 0.255332 -0.015649 -0.022946
							CHANNELS 3 Zrotation Yrotation Xrotation
							JOINT lwrist
							{
								OFFSET 0.265709 0.012698 -0.007375
								CHANNELS 3 Zrotation Yrotation Xrotation
								End Site
								{
									OFFSET 0.000000 0.000000 0.000000
								}
							}
						}
					}
				}
				JOINT rclavicle
				{
					OFFSET -0.082954 0.112472 -0.023707
					CHANNELS 3 Zrotation Yrotation Xrotation
					JOINT rshoulder
					{
						OFFSET -0.113228 0.046853 -0.008472
						CHANNELS 3 Zrotation Yrotation Xrotation
						JOINT relbow
						{
							OFFSET -0.260127 -0.014369 -0.031269
							CHANNELS 3 Zrotation Yrotation Xrotation
							JOINT rwrist
							{
								OFFSET -0.269108 0.006794 -0.006027
								CHANNELS 3 Zrotation Yrotation Xrotation
								End Site
								{
									OFFSET 0.000000 0.000000 0.000000
								}
							}
						}
					}
				}
			}
		}
	}
}
MOTION
Frames: 16
Frame Time: 0.033333
-0.198304 0.342071 1.018330 83.253865 -10.767610 71.297569 18.448167 6.893729 -78.505916 -8.435274 25.037402 93.366169 -16.041601 -8.891197 0.328969 0.000000 -0.000000 0.000000 -8.507898 -8.339660 11.415342 2.287127 10.967433 20.704824 -1.351659 2.954765 -18.252591 0.000000 -0.000000 0.000000 -1.701085 18.077693 25.814049 0.810008 -2.244581 -3.912413 0.372496 3.222747 -0.644224 -5.105835 -2.277159 -3.235746 2.369822 -6.667601 9.440023 -22.126003 5.931454 -4.605419 -31.141096 4.033348 -4.143656 35.265395 -46.386566 -22.344984 7.186351 -12.086126 -4.750629 23.855786 2.565876 2.909915 25.445937 -0.169890 -1.780383 -13.191843 37.698514 -4.285430 1.279099 9.741288 -6.938728 
-0.200726 0.343064 1.016159 81.906925 -10.154386 72.373464 16.720964 3.973646 -77.656338 -8.955431 24.702337 95.388274 -17.251672 -10.553997 0.907013 0.000000 -0.000000 0.000000 -7.362581 -7.567180 10.314142 2.086017 10.454892 20.364302 -1.679876 3.417771 -18.191681 0.000000 -0.000000 0.000000 -0.218260 18.137437 25.729038 0.590464 -1.301061 -4.994381 0.073555 3.912086 -0.400895 -5.054415 -2.494128 -2.915928 1.700198 -7.060045 9.603241 -22.062846 6.988250 -5.370774 -32.050328 4.843310 -3.860561 35.402568 -44.951092 -23.672833 5.427117 -12.218785 -3.541655 23.561082 2.463715 2.568176 25.752550 0.380504 -1.334588 -14.419643 38.743022 -5.108032 1.498125 9.684336 -6.622411 
-0.203019 0.342784 1.013773 81.327763 -9.361994 73.711095 15.325091 0.925823 -75.224627 -9.175811 23.885497 96.984883 -17.524304 -11.035536 1.708076 0.000000 -0.000000 0.000000 -6.246559 -6.799895 8.879799 2.301030 9.488384 20.197313 -1.862482 3.669985 -18.008531 0.000000 -0.000000 0.000000 0.771449 17.690441 24.882507 0.520187 -0.642284 -5.541877 -0.213654 4.282342 -0.330722 -4.964861 -2.645057 -2.729012 1.116086 -7.067282 9.529834 -22.102395 7.814979 -5.794995 -32.985680 5.055144 -3.755245 36.104392 -43.668911 -25.265441 4.439839 -12.031012 -2.625298 23.347114 2.082426 2.342514 26.164906 0.655924 -0.970943 -15.937298 39.640975 -5.968719 1.563829 9.574535 -6.455471 
-0.204456 0.340692 1.011758 81.501425 -8.578427 75.152735 14.273510 -1.703449 -71.154745 -8.624747 22.598053 97.997537 -17.126579 -9.950743 2.504145 0.000000 -0.000000 0.000000 -5.271656 -6.217572 7.408976 2.684505 8.301064 19.978531 -1.915469 3.675334 -17.774841 0.000000 -0.000000 0.000000 1.079499 16.941253 23.347080 0.611125 -0.278287 -5.549500 -0.355674 4.217528 -0.457365 -4.847291 -2.745593 -2.494470 0.782721 -6.634344 9.065327 -22.175921 8.412342 -5.861834 -33.890930 4.649896 -3.784428 36.973781 -42.830038 -26.741947 4.271696 -11.716077 -2.415953 23.235148 1.380299 2.146369 26.702861 0.584154 -0.630591 -17.354197 40.177746 -6.745356 1.304972 9.454072 -6.267990 
-0.204891 0.336577 1.010201 82.512521 -7.927188 76.603561 13.514818 -3.667111 -65.827476 -7.714564 20.849059 97.897241 -16.335147 -7.854199 3.084124 0.000000 -0.000000 0.000000 -4.332388 -5.765339 6.141866 2.970585 7.097115 19.461869 -2.029403 3.185939 -17.587978 0.000000 -0.000000 0.000000 0.597051 15.895834 21.421809 0.856761 -0.336618 -5.440808 -0.319845 3.788004 -0.721681 -4.624315 -2.723572 -2.107672 0.735335 -5.923445 8.485155 -22.156117 8.777598 -5.551116 -34.553092 3.752706 -3.820396 37.711298 -42.613177 -27.602383 4.257271 -11.492443 -2.571035 23.228631 0.394429 1.963834 27.416601 0.084633 -0.288942 -18.347713 40.193774 -7.234376 1.025544 9.344382 -6.249656 
-0.203890 0.330989 1.008777 84.487180 -7.383630 77.917223 13.078496 -5.064292 -59.913017 -6.908168 18.727164 96.388107 -15.400249 -5.324563 3.933270 0.000000 -0.000000 0.000000 -3.209875 -5.228007 5.203461 2.988613 5.962176 18.741081 -2.408495 1.906618 -17.467731 0.000000 -0.000000 0.000000 -0.422778 14.364272 19.268009 1.225478 -0.886377 -5.222871 -0.218157 3.078716 -1.086002 -4.331542 -2.568857 -1.534783 0.874199 -5.023300 7.976244 -22.026756 8.828327 -4.850657 -34.850861 2.511601 -3.758178 38.282780 -42.938020 -27.690646 4.042112 -11.355264 -2.764092 23.204051 -0.751184 1.834750 28.367116 -0.832966 0.034171 -18.810714 39.578437 -7.363264 1.099846 9.144500 -6.784375 
-0.201547 0.324828 1.007272 87.432998 -6.985134 78.936357 12.991597 -6.067577 -54.038884 -6.309965 16.398541 93.574578 -14.548428 -2.359645 5.714475 0.000000 -0.000000 0.000000 -2.044614 -4.621993 4.539007 2.823033 4.781497 18.199950 -3.012363 -0.012225 -17.520493 0.000000 -0.000000 0.000000 -1.704295 12.410048 17.200229 1.645937 -1.890785 -4.921337 -0.109699 2.045130 -1.473118 -4.052495 -2.351034 -0.916324 1.063274 -4.052418 7.633486 -21.834112 8.556743 -3.914971 -34.845479 0.913987 -3.538320 38.627415 -43.541186 -27.102233 3.866585 -11.258079 -3.176913 23.071982 -1.991049 1.666590 29.445440 -2.045586 0.368772 -18.725953 38.231948 -7.251355 1.281049 8.880508 -7.911973 
-0.198368 0.318909 1.005627 91.048671 -6.772089 79.690794 13.366526 -6.649944 -48.777731 -5.847399 14.065261 89.899058 -13.701224 0.689335 8.468248 0.000000 -0.000000 0.000000 -1.207858 -4.259189 4.007901 2.807416 3.516169 17.998773 -3.706099 -2.054103 -17.783211 0.000000 -0.000000 0.000000 -3.072667 10.361501 15.325333 2.048567 -3.183477 -4.537428 -0.011723 0.687062 -1.872011 -3.825044 -2.125841 -0.364890 1.233723 -3.159478 7.562181 -21.636688 7.987221 -2.846725 -34.661431 -1.105044 -3.241928 38.651017 -44.193674 -25.935545 3.851564 -11.176239 -3.839389 22.867518 -3.332695 1.431954 30.400834 -3.483137 0.620056 -18.185921 36.257629 -6.929027 1.292071 8.730286 -9.210272 
-0.194762 0.313606 1.004162 94.752043 -6.771405 80.133713 14.234241 -6.536256 -44.277745 -5.311645 11.930457 85.922636 -12.899163 3.236755 11.241710 0.000000 -0.000000 0.000000 -0.779864 -4.345076 3.671191 2.928340 2.491816 18.076131 -4.319146 -3.915476 -18.166396 0.000000 -0.000000 0.000000 -4.469594 8.571500 13.851282 2.395066 -4.467094 -4.160253 0.147224 -0.791385 -2.269788 -3.709863 -1.926344 0.039708 1.382089 -2.467720 7.846462 -21.463851 7.123067 -1.811287 -34.492866 -3.507876 -2.923736 38.212869 -44.765945 -24.248801 4.112700 -11.079052 -4.581934 22.676385 -4.750755 1.172984 31.007502 -5.270700 0.646559 -17.529725 34.139877 -6.627854 1.360780 8.600232 -10.221474 
-0.191155 0.309134 1.003136 98.111253 -6.986887 80.204941 15.468055 -5.775180 -40.539652 -4.539482 10.191089 82.084126 -12.327546 5.322257 12.962044 0.000000 -0.000000 0.000000 -0.480802 -4.563304 3.548150 2.862228 1.898446 18.432632 -4.873440 -5.815861 -18.622738 0.000000 -0.000000 0.000000 -5.932058 7.081039 12.938889 2.690516 -5.539064 -3.876054 0.404320 -2.142145 -2.573624 -3.710364 -1.750052 0.206416 1.537028 -1.962452 8.335903 -21.315143 6.106845 -0.911945 -34.532204 -6.084295 -2.582574 37.505735 -45.285317 -22.252723 4.724413 -10.963503 -5.453207 22.479587 -6.165541 0.890784 31.369834 -7.180461 0.494426 -17.082945 32.180222 -6.590393 1.452261 8.339871 -11.088097 
-0.187850 0.305725 1.002274 101.257486 -7.314399 80.077600 16.862279 -5.058813 -37.977090 -3.599770 8.899775 78.723044 -11.975104 7.217279 13.320855 0.000000 -0.000000 0.000000 -0.034655 -4.460977 3.497226 2.486931 1.346678 18.895222 -5.483879 -8.087867 -19.096947 0.000000 -0.000000 0.000000 -7.456612 5.664710 12.295428 2.989488 -6.576489 -3.542739 0.685615 -3.307234 -2.734853 -3.717717 -1.558078 0.201142 1.723546 -1.464588 8.696514 -21.130767 5.188695 -0.062939 -34.831011 -8.478791 -2.224390 37.004386 -45.979819 -20.374182 5.345610 -10.811496 -6.434739 22.170823 -7.440701 0.615272 31.742384 -8.687177 0.377805 -16.816593 30.371378 -6.616560 1.329823 8.045807 -12.069341 
-0.185239 0.303591 1.001651 104.313667 -7.706154 79.742751 18.036530 -4.831000 -36.776079 -2.905043 7.893957 76.156021 -11.301301 8.932247 12.968053 0.000000 -0.000000 0.000000 0.277816 -4.294206 3.648540 2.051973 0.654703 19.255196 -5.959534 -10.314265 -19.468238 0.000000 -0.000000 0.000000 -8.835038 4.401298 12.054696 3.224293 -7.730280 -3.257000 0.872583 -4.324500 -2.747196 -3.683697 -1.432635 -0.011227 1.949168 -0.997121 8.987758 -20.930811 4.405043 0.713423 -35.144717 -10.384929 -1.808252 36.735032 -46.996687 -18.607517 5.762591 -10.739387 -7.302663 21.771302 -8.405404 0.362249 32.241487 -9.767244 0.388156 -16.662759 28.852126 -6.586959 1.194657 7.871560 -13.003412 
-0.183717 0.302655 1.001682 106.725843 -8.087510 79.126265 18.896198 -4.644451 -36.647830 -2.724017 7.122355 74.672092 -9.747772 10.192231 12.876949 0.000000 -0.000000 0.000000 0.103663 -4.588323 4.084685 1.935501 0.242589 19.617877 -6.199265 -11.732969 -19.680422 0.000000 -0.000000 0.000000 -9.636924 3.630823 12.407808 3.237582 -8.643195 -3.178236 0.882379 -5.103108 -2.617348 -3.776629 -1.579364 -0.414751 2.207334 -0.651207 9.354667 -20.850482 3.662851 1.294797 -35.234149 -11.693878 -1.416671 36.247422 -48.326686 -16.495178 6.046311 -10.793765 -7.780709 21.345886 -8.921739 0.242647 32.903581 -10.719854 0.307557 -16.588403 27.844100 -6.594472 1.285970 7.830990 -13.762580 
-0.183096 0.302421 1.002171 107.823592 -8.427132 78.414266 19.679735 -3.982078 -37.289522 -2.758963 6.986566 74.353680 -7.816866 10.710450 12.938642 0.000000 -0.000000 0.000000 -0.528495 -5.284393 4.676989 2.166218 0.255332 19.994566 -6.266289 -12.010622 -19.847946 0.000000 -0.000000 0.000000 -9.813853 3.550872 13.007283 3.053803 -8.938689 -3.123059 0.816130 -5.449441 -2.489871 -4.111118 -1.996721 -0.770175 2.468133 -0.495453 9.571371 -20.875547 2.947443 1.681243 -35.323926 -12.357914 -1.106769 35.534571 -49.785255 -14.251621 6.292495 -10.856346 -7.828483 20.938436 -8.927939 0.445173 33.596605 -11.573075 -0.100715 -16.403951 27.344622 -6.585402 1.565115 7.891237 -14.386782 
-0.183053 0.302646 1.002642 107.788500 -8.810061 77.666936 20.299396 -2.971255 -38.624263 -2.579132 7.705284 75.082599 -6.528290 10.697991 12.226885 0.000000 -0.000000 0.000000 -1.355773 -6.028241 5.409301 2.356258 0.529693 20.245249 -6.162014 -11.534266 -19.998673 0.000000 -0.000000 0.000000 -9.687550 4.016920 13.684054 2.812283 -8.802497 -2.894759 0.770925 -5.329098 -2.427516 -4.513020 -2.438160 -1.118503 2.664095 -0.636690 9.576222 -20.962444 2.402313 1.842009 -35.590714 -12.420574 -0.827796 34.910692 -51.111201 -12.600906 6.525229 -10.932792 -7.918074 20.746488 -8.453330 0.856385 34.027558 -11.958848 -0.594003 -16.030248 27.050252 -6.542956 1.778666 7.976934 -14.785969 
-0.183536 0.303426 1.003271 107.214415 -9.249368 76.792108 20.428077 -1.910638 -40.618081 -2.419291 8.994100 76.525618 -5.843597 10.353382 10.689435 0.000000 -0.000000 0.000000 -2.133204 -6.591610 6.314886 2.291079 1.024206 20.367904 -5.981480 -10.977427 -20.046031 0.000000 -0.000000 0.000000 -9.400231 4.732110 14.523850 2.564781 -8.535650 -2.603473 0.709893 -4.923470 -2.294745 -4.874100 -2.886203 -1.466055 2.762272 -0.898075 9.499532 -21.176227 2.142056 1.806994 -35.877620 -11.912351 -0.618646 34.455350 -52.217020 -11.726771 6.933472 -11.008939 -8.243325 20.855183 -7.561251 1.184107 34.154211 -11.657063 -0.900328 -15.662852 26.720011 -6.668953 1.804011 7.978281 -14.789074 
